<svg width="15" height="15" viewBox="0 0 15 15" fill="none" xmlns="http://www.w3.org/2000/svg">
  <path
    d="M7.49998 2.67501C7.61049 2.67501 7.71647 2.63112 7.79461 2.55298C7.87275 2.47484 7.91665 2.36885 7.91665 2.25835V0.795848C7.91665 0.685341 7.87275 0.57936 7.79461 0.50122C7.71647 0.42308 7.61049 0.379181 7.49998 0.379181C7.38947 0.379181 7.28349 0.42308 7.20535 0.50122C7.12721 0.57936 7.08331 0.685341 7.08331 0.795848V2.25835C7.08331 2.36885 7.12721 2.47484 7.20535 2.55298C7.28349 2.63112 7.38947 2.67501 7.49998 2.67501Z"
    fill="#FFFFFF" />
  <path
    d="M7.49998 12.325C7.38947 12.325 7.28349 12.3689 7.20535 12.4471C7.12721 12.5252 7.08331 12.6312 7.08331 12.7417V14.2042C7.08331 14.3147 7.12721 14.4207 7.20535 14.4988C7.28349 14.5769 7.38947 14.6208 7.49998 14.6208C7.61049 14.6208 7.71647 14.5769 7.79461 14.4988C7.87275 14.4207 7.91665 14.3147 7.91665 14.2042V12.7417C7.91665 12.6312 7.87275 12.5252 7.79461 12.4471C7.71647 12.3689 7.61049 12.325 7.49998 12.325Z"
    fill="#FFFFFF" />
  <path
    d="M3.49998 4.08751C3.57969 4.15577 3.68222 4.19144 3.78708 4.18739C3.89195 4.18334 3.99142 4.13987 4.06563 4.06566C4.13984 3.99145 4.18331 3.89198 4.18736 3.78711C4.19141 3.68225 4.15574 3.57972 4.08748 3.50001L3.05415 2.46668C2.97444 2.39842 2.87191 2.36275 2.76704 2.3668C2.66217 2.37085 2.5627 2.41432 2.48849 2.48852C2.41429 2.56273 2.37082 2.66221 2.36677 2.76707C2.36272 2.87194 2.39838 2.97447 2.46665 3.05418L3.49998 4.08751Z"
    fill="#FFFFFF" />
  <path
    d="M11.5 10.9125C11.4203 10.8442 11.3178 10.8086 11.2129 10.8126C11.108 10.8167 11.0086 10.8602 10.9344 10.9344C10.8602 11.0086 10.8167 11.108 10.8126 11.2129C10.8086 11.3178 10.8442 11.4203 10.9125 11.5L11.9458 12.5333C12.0255 12.6016 12.1281 12.6373 12.2329 12.6332C12.3378 12.6292 12.4373 12.5857 12.5115 12.5115C12.5857 12.4373 12.6292 12.3378 12.6332 12.2329C12.6373 12.1281 12.6016 12.0255 12.5333 11.9458L11.5 10.9125Z"
    fill="#FFFFFF" />
  <path
    d="M2.67498 7.50001C2.67498 7.3895 2.63109 7.28352 2.55294 7.20538C2.4748 7.12724 2.36882 7.08334 2.25832 7.08334H0.795817C0.68531 7.08334 0.579329 7.12724 0.501189 7.20538C0.423049 7.28352 0.37915 7.3895 0.37915 7.50001C0.37915 7.61052 0.423049 7.7165 0.501189 7.79464C0.579329 7.87278 0.68531 7.91668 0.795817 7.91668H2.25832C2.36882 7.91668 2.4748 7.87278 2.55294 7.79464C2.63109 7.7165 2.67498 7.61052 2.67498 7.50001Z"
    fill="#FFFFFF" />
  <path
    d="M14.2042 7.08334H12.7417C12.6312 7.08334 12.5252 7.12724 12.4471 7.20538C12.3689 7.28352 12.325 7.3895 12.325 7.50001C12.325 7.61052 12.3689 7.7165 12.4471 7.79464C12.5252 7.87278 12.6312 7.91668 12.7417 7.91668H14.2042C14.3147 7.91668 14.4207 7.87278 14.4988 7.79464C14.5769 7.7165 14.6208 7.61052 14.6208 7.50001C14.6208 7.3895 14.5769 7.28352 14.4988 7.20538C14.4207 7.12724 14.3147 7.08334 14.2042 7.08334Z"
    fill="#FFFFFF" />
  <path
    d="M3.49998 10.9125L2.46665 11.9458C2.39838 12.0255 2.36272 12.1281 2.36677 12.2329C2.37082 12.3378 2.41429 12.4373 2.48849 12.5115C2.5627 12.5857 2.66217 12.6292 2.76704 12.6332C2.87191 12.6373 2.97444 12.6016 3.05415 12.5333L4.08748 11.5C4.15574 11.4203 4.19141 11.3178 4.18736 11.2129C4.18331 11.108 4.13984 11.0086 4.06563 10.9344C3.99142 10.8602 3.89195 10.8167 3.78708 10.8126C3.68222 10.8086 3.57969 10.8442 3.49998 10.9125Z"
    fill="#FFFFFF" />
  <path
    d="M11.5 4.08751L12.5333 3.05418C12.6016 2.97447 12.6373 2.87194 12.6332 2.76707C12.6292 2.66221 12.5857 2.56273 12.5115 2.48852C12.4373 2.41432 12.3378 2.37085 12.2329 2.3668C12.1281 2.36275 12.0255 2.39842 11.9458 2.46668L10.9125 3.50001C10.8442 3.57972 10.8086 3.68225 10.8126 3.78711C10.8167 3.89198 10.8602 3.99145 10.9344 4.06566C11.0086 4.13987 11.108 4.18334 11.2129 4.18739C11.3178 4.19144 11.4203 4.15577 11.5 4.08751Z"
    fill="#FFFFFF" />
  <path
    d="M7.49998 11.6667C9.80117 11.6667 11.6666 9.8012 11.6666 7.50001C11.6666 5.19882 9.80117 3.33334 7.49998 3.33334C5.19879 3.33334 3.33331 5.19882 3.33331 7.50001C3.33331 9.8012 5.19879 11.6667 7.49998 11.6667Z"
    fill="#FFFFFF" />
</svg>