<svg width="14" height="13" viewBox="0 0 14 13" fill="none" xmlns="http://www.w3.org/2000/svg">
  <g clip-path="url(#clip0_1842_6567)">
    <path
      d="M5.375 0.225995C5.45431 0.322368 5.5029 0.44031 5.51449 0.564583C5.52607 0.688855 5.50013 0.813747 5.44 0.92312C4.97026 1.78557 4.72495 2.7523 4.72662 3.73437C4.72662 7.00143 7.39 9.64693 10.6725 9.64693C11.1007 9.64693 11.5175 9.60225 11.9181 9.51693C12.0409 9.49034 12.1688 9.50051 12.2858 9.54618C12.4028 9.59184 12.5038 9.67097 12.5762 9.77368C12.6526 9.88049 12.6915 10.0095 12.6869 10.1407C12.6824 10.272 12.6346 10.398 12.551 10.4992C11.9137 11.282 11.1098 11.9127 10.1979 12.3454C9.2859 12.778 8.28888 13.0017 7.2795 13.0001C3.53387 13.0001 0.5 9.9825 0.5 6.2645C0.5 3.46625 2.21763 1.06612 4.66325 0.0488705C4.78507 -0.00261616 4.92032 -0.0131836 5.04866 0.0187557C5.177 0.0506949 5.29152 0.123416 5.375 0.225995Z"
      fill="white" />
    <path
      d="M9.27028 2.55775C9.28193 2.52257 9.30437 2.49195 9.33442 2.47025C9.36446 2.44855 9.40059 2.43686 9.43765 2.43686C9.47472 2.43686 9.51084 2.44855 9.54089 2.47025C9.57093 2.49195 9.59338 2.52257 9.60503 2.55775L9.91946 3.50188C10.06 3.92275 10.3899 4.25263 10.8108 4.39319L11.7549 4.70763C11.7901 4.71928 11.8207 4.74172 11.8424 4.77177C11.8641 4.80182 11.8758 4.83794 11.8758 4.875C11.8758 4.91207 11.8641 4.94819 11.8424 4.97824C11.8207 5.00828 11.7901 5.03073 11.7549 5.04238L10.8108 5.35682C10.6032 5.42597 10.4146 5.54252 10.2599 5.69723C10.1052 5.85194 9.98862 6.04056 9.91946 6.24813L9.60503 7.19225C9.59338 7.22744 9.57093 7.25806 9.54089 7.27976C9.51084 7.30146 9.47472 7.31314 9.43765 7.31314C9.40059 7.31314 9.36446 7.30146 9.33442 7.27976C9.30437 7.25806 9.28193 7.22744 9.27028 7.19225L8.95584 6.24813C8.88668 6.04056 8.77013 5.85194 8.61542 5.69723C8.46071 5.54252 8.2721 5.42597 8.06453 5.35682L7.1204 5.04238C7.08522 5.03073 7.0546 5.00828 7.03289 4.97824C7.01119 4.94819 6.99951 4.91207 6.99951 4.875C6.99951 4.83794 7.01119 4.80182 7.03289 4.77177C7.0546 4.74172 7.08522 4.71928 7.1204 4.70763L8.06453 4.39319C8.2721 4.32403 8.46071 4.20748 8.61542 4.05277C8.77013 3.89807 8.88668 3.70945 8.95584 3.50188L9.27028 2.55775ZM11.7638 0.0804416C11.7719 0.0573067 11.7869 0.0372458 11.8068 0.0230479C11.8268 0.00885 11.8507 0.0012207 11.8752 0.0012207C11.8996 0.0012207 11.9235 0.00885 11.9435 0.0230479C11.9634 0.0372458 11.9784 0.0573067 11.9865 0.0804416L12.1961 0.709317C12.2895 0.990442 12.5097 1.21063 12.7908 1.30407L13.4197 1.51369C13.4428 1.52171 13.4629 1.53674 13.4771 1.55669C13.4913 1.57664 13.4989 1.60052 13.4989 1.625C13.4989 1.64949 13.4913 1.67337 13.4771 1.69332C13.4629 1.71327 13.4428 1.7283 13.4197 1.73632L12.7908 1.94594C12.6523 1.99203 12.5264 2.06978 12.4232 2.17302C12.3199 2.27626 12.2422 2.40215 12.1961 2.54069L11.9865 3.16957C11.9784 3.1927 11.9634 3.21276 11.9435 3.22696C11.9235 3.24116 11.8996 3.24879 11.8752 3.24879C11.8507 3.24879 11.8268 3.24116 11.8068 3.22696C11.7869 3.21276 11.7719 3.1927 11.7638 3.16957L11.5542 2.54069C11.5081 2.40215 11.4304 2.27626 11.3271 2.17302C11.2239 2.06978 11.098 1.99203 10.9595 1.94594L10.3306 1.73632C10.3075 1.7283 10.2874 1.71327 10.2732 1.69332C10.259 1.67337 10.2514 1.64949 10.2514 1.625C10.2514 1.60052 10.259 1.57664 10.2732 1.55669C10.2874 1.53674 10.3075 1.52171 10.3306 1.51369L10.9595 1.30407C11.2406 1.21063 11.4608 0.990442 11.5542 0.709317L11.7638 0.0812541V0.0804416Z"
      fill="white" />
  </g>
  <defs>
    <clipPath id="clip0_1842_6567">
      <rect width="13" height="13" fill="white" transform="translate(0.5)" />
    </clipPath>
  </defs>
</svg>