<svg width="600" height="420" xmlns="http://www.w3.org/2000/svg">
  <rect width="100%" height="100%" fill="white" />
  <!-- Styles -->
  <style>
    .box { fill: white; stroke: black; stroke-width: 2; rx: 10; ry: 10; }
    .diamond { fill: white; stroke: black; stroke-width: 2; }
    .text { font-family: sans-serif; font-size: 13px; text-anchor: middle; dominant-baseline:
    middle; }
    .arrow { stroke: black; stroke-width: 2; marker-end: url(#arrowhead); }
  </style>

  <!-- Arrowhead marker -->
  <defs>
    <marker id="arrowhead" markerWidth="10" markerHeight="7"
      refX="10" refY="3.5" orient="auto">
      <polygon points="0 0, 10 3.5, 0 7" />
    </marker>
  </defs>

  <!-- Elements -->
  <!-- 1. Browser Client -->
  <rect x="50" y="40" width="200" height="50" class="box" />
  <text x="150" y="65" class="text">Browser Client</text>

  <!-- 2. POST /api/score/update -->
  <rect x="300" y="40" width="220" height="50" class="box" />
  <text x="410" y="65" class="text">POST /api/score/update</text>

  <!-- 3. Auth + Verify Signature -->
  <rect x="300" y="120" width="220" height="50" class="box" />
  <text x="410" y="145" class="text">Auth + Verify Signature</text>

  <!-- 4. Update Score + Log -->
  <rect x="300" y="200" width="220" height="50" class="box" />
  <text x="410" y="225" class="text">Update Score + Log Event</text>

  <!-- 5. Diamond: Top 10 changed? -->
  <polygon class="diamond" points="410,290 460,340 410,390 360,340" />
  <text x="410" y="333" class="text">Top 10</text>
  <text x="410" y="353" class="text">changed?</text>

  <!-- 6. Broadcast -->
  <rect x="50" y="310" width="250" height="60" class="box" />
  <text x="175" y="330" class="text">Broadcast Top 10</text>
  <text x="175" y="350" class="text">to Clients (WebSocket/SSE)</text>

  <!-- Arrows -->
  <line x1="250" y1="65" x2="300" y2="65" class="arrow" />
  <line x1="410" y1="90" x2="410" y2="120" class="arrow" />
  <line x1="410" y1="170" x2="410" y2="200" class="arrow" />
  <line x1="410" y1="250" x2="410" y2="290" class="arrow" />
  <line x1="360" y1="340" x2="300" y2="340" class="arrow" />
</svg>