<svg width="909" height="608" viewBox="0 0 909 608" fill="none" xmlns="http://www.w3.org/2000/svg">
<g clip-path="url(#clip0_0_12)">
<rect width="909" height="608" rx="30" transform="matrix(-1 0 0 1 909 0)" fill="#414C83" fill-opacity="0.6"/>
<g filter="url(#filter0_f_0_12)">
<circle cx="153.5" cy="153.5" r="153.5" transform="matrix(-1 0 0 1 571 525)" fill="#4A37E1"/>
</g>
<g filter="url(#filter1_f_0_12)">
<circle cx="153.5" cy="153.5" r="153.5" transform="matrix(-1 0 0 1 571 301)" fill="#FCB2A0"/>
</g>
<g filter="url(#filter2_f_0_12)">
<circle cx="153.5" cy="153.5" r="153.5" transform="matrix(-1 0 0 1 843 109)" fill="#BA55D6"/>
</g>
<g filter="url(#filter3_f_0_12)">
<circle cx="184.5" cy="184.5" r="184.5" transform="matrix(-1 0 0 1 1059 321)" fill="#FFE8BA"/>
</g>
<g filter="url(#filter4_f_0_12)">
<circle cx="153.5" cy="153.5" r="153.5" transform="matrix(-1 0 0 1 949 -83)" fill="#B4D7F7"/>
</g>
</g>
<defs>
<filter id="filter0_f_0_12" x="38" y="299" width="759" height="759" filterUnits="userSpaceOnUse" color-interpolation-filters="sRGB">
<feFlood flood-opacity="0" result="BackgroundImageFix"/>
<feBlend mode="normal" in="SourceGraphic" in2="BackgroundImageFix" result="shape"/>
<feGaussianBlur stdDeviation="113" result="effect1_foregroundBlur_0_12"/>
</filter>
<filter id="filter1_f_0_12" x="38" y="75" width="759" height="759" filterUnits="userSpaceOnUse" color-interpolation-filters="sRGB">
<feFlood flood-opacity="0" result="BackgroundImageFix"/>
<feBlend mode="normal" in="SourceGraphic" in2="BackgroundImageFix" result="shape"/>
<feGaussianBlur stdDeviation="113" result="effect1_foregroundBlur_0_12"/>
</filter>
<filter id="filter2_f_0_12" x="310" y="-117" width="759" height="759" filterUnits="userSpaceOnUse" color-interpolation-filters="sRGB">
<feFlood flood-opacity="0" result="BackgroundImageFix"/>
<feBlend mode="normal" in="SourceGraphic" in2="BackgroundImageFix" result="shape"/>
<feGaussianBlur stdDeviation="113" result="effect1_foregroundBlur_0_12"/>
</filter>
<filter id="filter3_f_0_12" x="464" y="95" width="821" height="821" filterUnits="userSpaceOnUse" color-interpolation-filters="sRGB">
<feFlood flood-opacity="0" result="BackgroundImageFix"/>
<feBlend mode="normal" in="SourceGraphic" in2="BackgroundImageFix" result="shape"/>
<feGaussianBlur stdDeviation="113" result="effect1_foregroundBlur_0_12"/>
</filter>
<filter id="filter4_f_0_12" x="416" y="-309" width="759" height="759" filterUnits="userSpaceOnUse" color-interpolation-filters="sRGB">
<feFlood flood-opacity="0" result="BackgroundImageFix"/>
<feBlend mode="normal" in="SourceGraphic" in2="BackgroundImageFix" result="shape"/>
<feGaussianBlur stdDeviation="113" result="effect1_foregroundBlur_0_12"/>
</filter>
<clipPath id="clip0_0_12">
<rect width="909" height="608" rx="30" transform="matrix(-1 0 0 1 909 0)" fill="white"/>
</clipPath>
</defs>
</svg>
