<svg width="13" height="14" viewBox="0 0 13 14" fill="none" xmlns="http://www.w3.org/2000/svg">
<path fill-rule="evenodd" clip-rule="evenodd" d="M9.14672 0.646654C9.24047 0.55302 9.36755 0.500427 9.50005 0.500427C9.63255 0.500427 9.75963 0.55302 9.85338 0.646654L12.8534 3.64665C12.947 3.7404 12.9996 3.86749 12.9996 3.99999C12.9996 4.13249 12.947 4.25957 12.8534 4.35332L9.85338 7.35332C9.80761 7.40245 9.75241 7.44185 9.69107 7.46917C9.62974 7.4965 9.56353 7.5112 9.4964 7.51238C9.42926 7.51357 9.36258 7.50122 9.30032 7.47607C9.23806 7.45092 9.1815 7.41349 9.13402 7.36601C9.08654 7.31853 9.04911 7.26198 9.02397 7.19972C8.99882 7.13746 8.98647 7.07077 8.98765 7.00364C8.98884 6.9365 9.00353 6.87029 9.03086 6.80896C9.05819 6.74763 9.09759 6.69243 9.14672 6.64665L11.2934 4.49999H3.50005C3.36744 4.49999 3.24026 4.44731 3.14649 4.35354C3.05273 4.25977 3.00005 4.1326 3.00005 3.99999C3.00005 3.86738 3.05273 3.7402 3.14649 3.64643C3.24026 3.55267 3.36744 3.49999 3.50005 3.49999H11.2934L9.14672 1.35332C9.05308 1.25957 9.00049 1.13249 9.00049 0.999987C9.00049 0.867487 9.05308 0.740404 9.14672 0.646654ZM3.85338 6.64665C3.94702 6.7404 3.99961 6.86749 3.99961 6.99999C3.99961 7.13249 3.94702 7.25957 3.85338 7.35332L1.70671 9.49999H9.50005C9.63266 9.49999 9.75983 9.55267 9.8536 9.64643C9.94737 9.7402 10 9.86738 10 9.99999C10 10.1326 9.94737 10.2598 9.8536 10.3535C9.75983 10.4473 9.63266 10.5 9.50005 10.5H1.70671L3.85338 12.6467C3.90251 12.6924 3.94191 12.7476 3.96924 12.809C3.99656 12.8703 4.01126 12.9365 4.01244 13.0036C4.01363 13.0708 4.00128 13.1375 3.97613 13.1997C3.95098 13.262 3.91355 13.3185 3.86607 13.366C3.81859 13.4135 3.76204 13.4509 3.69978 13.4761C3.63752 13.5012 3.57084 13.5136 3.5037 13.5124C3.43656 13.5112 3.37036 13.4965 3.30902 13.4692C3.24769 13.4418 3.19249 13.4024 3.14671 13.3533L0.146715 10.3533C0.0530814 10.2596 0.000488281 10.1325 0.000488281 9.99999C0.000488281 9.86749 0.0530814 9.7404 0.146715 9.64665L3.14671 6.64665C3.24047 6.55302 3.36755 6.50043 3.50005 6.50043C3.63255 6.50043 3.75963 6.55302 3.85338 6.64665Z" fill="white"/>
</svg>
