<?xml version="1.0" encoding="UTF-8"?>
<svg xmlns:xodm="http://www.corel.com/coreldraw/odm/2003" xmlns="http://www.w3.org/2000/svg" xmlns:xlink="http://www.w3.org/1999/xlink" version="1.1" id="Layer_1" x="0px" y="0px" viewBox="0 0 2500 2500" style="enable-background:new 0 0 2500 2500;" xml:space="preserve">
<style type="text/css">
	.st0{fill-rule:evenodd;clip-rule:evenodd;fill:#E91179;}
	.st1{fill:#FFFFFF;}
</style>
<g id="Layer_x0020_1">
	<g id="_2806810784608">
		<circle class="st0" cx="1250" cy="1250" r="1250"></circle>
		<path class="st1" d="M1283,1984c-181,0-330-39-445-118c-106-72-174-172-203-301c-4-20,8-39,28-44l251-65c22-6,43,8,49,30    c13,47,31,85,55,114c32,37,70,64,115,81c47,15,97,22,151,22c82,0,143-14,182-42c39-30,59-66,59-109s-19-76-56-98    c-37-24-97-44-179-59l-78-14c-97-19-186-44-266-76c-80-34-145-79-193-137c-49-58-73-133-73-224c0-138,50-244,151-317    c101-75,233-112,398-112c155,0,284,35,387,104c91,62,155,140,190,236c7,20-4,41-25,47l-251,77c-22,7-45-7-52-29    c-17-50-44-86-81-110c-45-30-101-45-168-45s-119,12-154,36c-35,22-53,54-53,95c0,45,19,78,56,101c37,21,88,36,151,48l78,14    c105,19,199,44,283,76c86,30,153,74,202,132c50,56,76,133,76,230c0,146-53,259-160,339c-105,78-246,118-423,118H1283z"></path>
	</g>
</g>
</svg>
